<svg width="37" height="36" viewBox="0 0 37 36" fill="none" xmlns="http://www.w3.org/2000/svg">
<path opacity="0.2" fill-rule="evenodd" clip-rule="evenodd" d="M7.54297 18C7.54297 24.0417 12.4578 28.9565 18.4995 28.9565C24.5412 28.9565 29.456 24.0417 29.456 18C29.456 11.9582 24.5412 7.04346 18.4995 7.04346C12.4578 7.04346 7.54297 11.9582 7.54297 18ZM9.10819 18C9.10819 12.8215 13.321 8.60867 18.4995 8.60867C23.678 8.60867 27.8908 12.8215 27.8908 18C27.8908 23.1785 23.678 27.3913 18.4995 27.3913C13.321 27.3913 9.10819 23.1785 9.10819 18Z" fill="#258AFF"/>
<path opacity="0.5" fill-rule="evenodd" clip-rule="evenodd" d="M18.4996 21.1304C20.2285 21.1304 21.63 19.7289 21.63 18C21.63 16.2711 20.2285 14.8696 18.4996 14.8696C16.7707 14.8696 15.3691 16.2711 15.3691 18C15.3691 19.7289 16.7707 21.1304 18.4996 21.1304Z" fill="#258AFF"/>
<path fill-rule="evenodd" clip-rule="evenodd" d="M34.8346 10.433C34.419 10.753 33.9659 11.027 33.4776 11.2359C34.4253 13.3341 34.9348 15.631 34.9348 18C34.9348 27.0626 27.5626 34.4348 18.5 34.4348C9.43739 34.4348 2.06522 27.0626 2.06522 18C2.06522 8.93739 9.43739 1.56522 18.5 1.56522C21.6477 1.56522 24.721 2.48791 27.3505 4.16817C27.2034 4.57983 27.1087 5.01652 27.1087 5.47826C27.1087 7.63591 28.8641 9.3913 31.0217 9.3913C33.1794 9.3913 34.9348 7.63591 34.9348 5.47826C34.9348 3.32061 33.1794 1.56522 31.0217 1.56522C29.8885 1.56522 28.8743 2.05748 28.159 2.82991C25.2868 1.00252 21.9333 0 18.5 0C8.57496 0 0.5 8.07496 0.5 18C0.5 27.925 8.57496 36 18.5 36C28.425 36 36.5 27.925 36.5 18C36.5 15.3462 35.9185 12.7722 34.8346 10.433Z" fill="#258AFF"/>
</svg>
