<svg width="31" height="31" viewBox="0 0 31 31" fill="none" xmlns="http://www.w3.org/2000/svg">
<path d="M19.9819 14.9378L13.7419 10.4018C13.5129 10.2358 13.2089 10.2108 12.9579 10.3398C12.7049 10.4678 12.5469 10.7278 12.5469 11.0088V20.0778C12.5469 20.3618 12.7049 20.6208 12.9579 20.7488C13.0649 20.8028 13.1819 20.8298 13.2999 20.8298C13.4539 20.8298 13.6099 20.7808 13.7419 20.6838L19.9819 16.1518C20.1789 16.0068 20.2939 15.7828 20.2939 15.5448C20.2949 15.3028 20.1769 15.0798 19.9819 14.9378Z" fill="#FF2B99"/>
<path d="M15.026 0.501953C6.726 0.501953 0 7.22795 0 15.528C0 23.825 6.726 30.549 15.026 30.549C23.324 30.549 30.051 23.824 30.051 15.528C30.052 7.22795 23.324 0.501953 15.026 0.501953ZM15.026 28.042C8.114 28.042 2.51 22.441 2.51 15.528C2.51 8.61795 8.114 3.00995 15.026 3.00995C21.937 3.00995 27.54 8.61695 27.54 15.528C27.541 22.441 21.937 28.042 15.026 28.042Z" fill="#FF2B99"/>
</svg>
