<svg width="124" height="15" viewBox="0 0 124 15" fill="none" xmlns="http://www.w3.org/2000/svg">
<path d="M69.4492 0.281738H57.2067C56.6099 0.281738 56.0417 0.758549 55.9358 1.34672L53.7788 13.4189C53.6728 14.0065 54.0713 14.4833 54.6681 14.4833H66.9105C67.5068 14.4833 68.0761 14.0065 68.1809 13.4189L70.3396 1.34672C70.4434 0.758549 70.0455 0.281738 69.4492 0.281738Z" fill="#4CCEAC"/>
<path d="M61.9569 2.85986L60.0799 13.3583H57.4234L58.43 7.73014C58.5749 6.91708 58.6425 6.42891 58.6327 6.26403C58.6284 6.18402 58.6014 6.10726 58.5554 6.0413C58.5089 5.97535 58.4451 5.92345 58.3705 5.89156C58.2078 5.80722 57.8197 5.76505 57.2056 5.76505H56.9434L57.1628 4.54167C58.4954 4.26867 59.5712 3.70861 60.3897 2.85986H61.9569Z" fill="white"/>
<path d="M65.6002 1.44092C66.1143 2.28858 66.989 2.84864 68.2237 3.12111L68.0053 4.34557H67.7426C67.129 4.34557 66.7257 4.38774 66.5333 4.47153C66.4463 4.50559 66.3668 4.55586 66.2998 4.61965C66.2327 4.68398 66.1787 4.76021 66.1419 4.84508C66.0722 5.00889 65.9651 5.49759 65.8197 6.31119L64.8131 11.9389H62.1582L64.0379 1.44092H65.6002Z" fill="white"/>
<path d="M2.93763 4.59872H0V2.89258H8.0009V4.59872H5.06273V11.9455H2.93763V4.59872Z" fill="#696FFB"/>
<path d="M9.74609 7.41896C9.74609 4.72893 11.8712 2.73682 14.7688 2.73682C17.667 2.73682 19.7926 4.72028 19.7926 7.41896C19.7926 10.1182 17.6545 12.1011 14.7688 12.1011C11.8831 12.1011 9.74609 10.1122 9.74609 7.41896ZM17.6416 7.41896C17.6416 5.69877 16.4085 4.52188 14.7688 4.52188C13.1292 4.52188 11.8961 5.69877 11.8961 7.41896C11.8961 9.13916 13.1292 10.3166 14.7688 10.3166C16.4085 10.3166 17.6416 9.13916 17.6416 7.41896Z" fill="#696FFB"/>
<path d="M30.6671 6.17691C30.6671 8.19498 29.1323 9.44971 26.6796 9.44971H24.8302V11.95H22.7051V2.896H26.6796C29.1323 2.89276 30.6671 4.14641 30.6671 6.17691ZM28.516 6.17691C28.516 5.18112 27.8603 4.5989 26.5617 4.5989H24.8302V7.74195H26.5617C27.8603 7.74195 28.516 7.16026 28.516 6.17691Z" fill="#696FFB"/>
<path d="M32.8965 11.0534L33.6176 9.47541C34.3918 10.0317 35.546 10.4198 36.6477 10.4198C37.9073 10.4198 38.4187 10.0057 38.4187 9.45C38.4187 7.75522 33.0803 8.91967 33.0803 5.55659C33.0803 4.0175 34.3393 2.73682 36.9499 2.73682C38.1041 2.73682 39.2848 3.00874 40.1373 3.53853L39.4815 5.12952C38.6285 4.65109 37.75 4.42079 36.9364 4.42079C35.6773 4.42079 35.1875 4.88679 35.1875 5.4555C35.1875 7.12434 40.5265 5.97286 40.5265 9.29701C40.5265 10.8102 39.254 12.1038 36.6304 12.1038C35.1789 12.1011 33.7095 11.6746 32.8965 11.0534Z" fill="#343A40"/>
<path d="M50.4083 10.2643V11.9456H43.2988V2.8916H50.238V4.57341H45.411V6.53904H49.6736V8.16895H45.411V10.2643H50.4083Z" fill="#343A40"/>
<path d="M80.6173 10.2643V11.9456H73.5078V2.8916H80.4464V4.57341H75.6194V6.53904H79.8826V8.16895H75.6194V10.2643H80.6173Z" fill="#343A40"/>
<path d="M89.4715 11.9457L87.7005 9.42222H85.7462V11.9441H83.6211V2.89014H87.5956C90.0483 2.89014 91.5831 4.14379 91.5831 6.17483C91.5831 7.53282 90.8835 8.52861 89.6942 9.03299L91.7539 11.943L89.4715 11.9457ZM87.474 4.59898H85.7424V7.75501H87.474C88.7725 7.75501 89.4288 7.16035 89.4288 6.17699C89.432 5.1812 88.7763 4.59898 87.474 4.59898Z" fill="#343A40"/>
<path d="M123.093 0.281738H100.777C100.18 0.281738 99.6121 0.758548 99.5061 1.34672L97.3491 13.4189C97.2431 14.0065 97.6416 14.4833 98.2384 14.4833H120.554C121.15 14.4833 121.72 14.0065 121.824 13.4189L123.983 1.34672C124.087 0.758548 123.689 0.281738 123.093 0.281738Z" fill="#343A40"/>
<path d="M105.539 4.7566C106.34 4.7566 106.96 4.92881 107.4 5.27323C107.84 5.61765 108.06 6.1004 108.06 6.72148C108.06 7.21834 107.935 7.65593 107.683 8.03422C107.437 8.41252 107.083 8.70612 106.62 8.91503C106.162 9.12394 105.631 9.22839 105.025 9.22839H103.987L103.696 10.6851H101.672L102.872 4.7566H105.539ZM105.128 7.68698C105.408 7.68698 105.625 7.61923 105.779 7.48372C105.934 7.34256 106.011 7.14777 106.011 6.89933C106.011 6.49845 105.759 6.29801 105.256 6.29801H104.579L104.296 7.68698H105.128Z" fill="#191A1B"/>
<path d="M114.349 6.70454C114.349 7.22964 114.206 7.6898 113.92 8.08504C113.64 8.47462 113.243 8.7654 112.729 8.95737L113.732 10.6851H111.631L110.782 9.19451H110.285L109.985 10.6851H107.961L109.161 4.7566H111.854C112.643 4.7566 113.254 4.92881 113.689 5.27323C114.129 5.612 114.349 6.08911 114.349 6.70454ZM112.3 6.89933C112.3 6.49845 112.048 6.29801 111.545 6.29801H110.868L110.585 7.68698H111.417C111.697 7.68698 111.914 7.61923 112.068 7.48372C112.223 7.34256 112.3 7.14777 112.3 6.89933Z" fill="#191A1B"/>
<path d="M117.729 10.8206C117.117 10.8206 116.58 10.7105 116.117 10.4903C115.659 10.2645 115.305 9.95111 115.053 9.55022C114.808 9.14934 114.685 8.68918 114.685 8.16973C114.685 7.48089 114.845 6.86828 115.165 6.33189C115.491 5.78986 115.939 5.36921 116.511 5.06997C117.088 4.77072 117.74 4.62109 118.466 4.62109C119.078 4.62109 119.612 4.73402 120.07 4.95987C120.533 5.18007 120.887 5.49061 121.133 5.89149C121.385 6.29237 121.51 6.75253 121.51 7.27198C121.51 7.96082 121.347 8.57626 121.022 9.11829C120.701 9.65468 120.253 10.0725 119.675 10.3717C119.104 10.671 118.455 10.8206 117.729 10.8206ZM117.9 9.20298C118.22 9.20298 118.498 9.12111 118.732 8.95737C118.972 8.79363 119.155 8.57343 119.281 8.29677C119.407 8.02011 119.47 7.71803 119.47 7.39055C119.47 7.04049 119.364 6.761 119.152 6.55209C118.946 6.34318 118.661 6.23873 118.295 6.23873C117.975 6.23873 117.694 6.3206 117.454 6.48434C117.22 6.64808 117.04 6.86828 116.914 7.14494C116.788 7.42161 116.725 7.72368 116.725 8.05116C116.725 8.40122 116.828 8.68071 117.034 8.88962C117.246 9.09853 117.534 9.20298 117.9 9.20298Z" fill="#191A1B"/>
<path d="M104.92 4.13697C105.72 4.13697 106.341 4.30918 106.781 4.6536C107.221 4.99802 107.441 5.48077 107.441 6.10185C107.441 6.59872 107.315 7.0363 107.064 7.41459C106.818 7.79289 106.464 8.08649 106.001 8.2954C105.543 8.50431 105.012 8.60876 104.406 8.60876H103.368L103.076 10.0655H101.053L102.253 4.13697H104.92ZM104.508 7.06735C104.789 7.06735 105.006 6.9996 105.16 6.86409C105.315 6.72293 105.392 6.52814 105.392 6.27971C105.392 5.87883 105.14 5.67839 104.637 5.67839H103.96L103.677 7.06735H104.508Z" fill="white"/>
<path d="M113.73 6.08491C113.73 6.61001 113.587 7.07017 113.301 7.46541C113.021 7.855 112.624 8.14577 112.109 8.33775L113.113 10.0655H111.012L110.163 8.57489H109.665L109.365 10.0655H107.342L108.542 4.13697H111.235C112.024 4.13697 112.635 4.30918 113.07 4.6536C113.51 4.99237 113.73 5.46948 113.73 6.08491ZM111.681 6.27971C111.681 5.87883 111.429 5.67839 110.926 5.67839H110.249L109.966 7.06735H110.797C111.078 7.06735 111.295 6.9996 111.449 6.86409C111.603 6.72293 111.681 6.52814 111.681 6.27971Z" fill="white"/>
<path d="M117.11 10.201C116.498 10.201 115.961 10.0909 115.498 9.87069C115.04 9.64484 114.686 9.33148 114.434 8.9306C114.188 8.52972 114.065 8.06955 114.065 7.5501C114.065 6.86126 114.226 6.24865 114.546 5.71226C114.872 5.17023 115.32 4.74959 115.892 4.45034C116.469 4.15109 117.121 4.00146 117.847 4.00146C118.459 4.00146 118.993 4.11439 119.451 4.34024C119.914 4.56044 120.268 4.87098 120.514 5.27186C120.765 5.67274 120.891 6.1329 120.891 6.65235C120.891 7.34119 120.728 7.95663 120.402 8.49866C120.082 9.03505 119.634 9.45287 119.056 9.75212C118.484 10.0514 117.836 10.201 117.11 10.201ZM117.281 8.58335C117.601 8.58335 117.879 8.50148 118.113 8.33775C118.353 8.17401 118.536 7.9538 118.662 7.67714C118.787 7.40048 118.85 7.0984 118.85 6.77093C118.85 6.42086 118.745 6.14137 118.533 5.93246C118.327 5.72356 118.041 5.6191 117.676 5.6191C117.355 5.6191 117.075 5.70097 116.835 5.86471C116.601 6.02845 116.421 6.24865 116.295 6.52532C116.169 6.80198 116.106 7.10405 116.106 7.43153C116.106 7.78159 116.209 8.06108 116.415 8.26999C116.627 8.4789 116.915 8.58335 117.281 8.58335Z" fill="white"/>
</svg>
