<svg width="168" height="27" viewBox="0 0 168 27" fill="none" xmlns="http://www.w3.org/2000/svg">
<path d="M127.161 0H104.745C103.653 0 102.612 0.873041 102.418 1.94999L98.4687 24.0542C98.2747 25.1301 99.0043 26.0032 100.097 26.0032H122.513C123.605 26.0032 124.647 25.1301 124.839 24.0542L128.792 1.94999C128.982 0.873041 128.253 0 127.161 0Z" fill="#4CCEAC"/>
<path d="M113.442 4.7207L110.005 23.9434H105.141L106.984 13.6382C107.249 12.1495 107.373 11.2556 107.355 10.9537C107.347 10.8072 107.298 10.6667 107.213 10.5459C107.128 10.4252 107.012 10.3301 106.875 10.2717C106.577 10.1173 105.866 10.0401 104.742 10.0401H104.262L104.664 7.8001C107.104 7.30023 109.073 6.27476 110.572 4.7207H113.442Z" fill="white"/>
<path d="M120.113 2.12207C121.054 3.67414 122.656 4.69962 124.917 5.1985L124.517 7.44049H124.036C122.912 7.44049 122.174 7.5177 121.821 7.67113C121.662 7.73349 121.516 7.82554 121.394 7.94234C121.271 8.06013 121.172 8.1997 121.105 8.35511C120.977 8.65503 120.781 9.54985 120.515 11.0396L118.672 21.3438H113.811L117.252 2.12207H120.113Z" fill="white"/>
<path d="M5.3788 7.90519H0V4.78125H14.6497V7.90519H9.26987V21.3571H5.3788V7.90519Z" fill="#696FFB"/>
<path d="M17.8457 13.0672C17.8457 8.14171 21.7368 4.49414 27.0423 4.49414C32.3489 4.49414 36.2409 8.12587 36.2409 13.0672C36.2409 18.0094 32.3261 21.6402 27.0423 21.6402C21.7586 21.6402 17.8457 17.9986 17.8457 13.0672ZM32.3023 13.0672C32.3023 9.91749 30.0445 7.7626 27.0423 7.7626C24.0401 7.7626 21.7823 9.91749 21.7823 13.0672C21.7823 16.2168 24.0401 18.3727 27.0423 18.3727C30.0445 18.3727 32.3023 16.2168 32.3023 13.0672Z" fill="#696FFB"/>
<path d="M56.1526 10.7945C56.1526 14.4896 53.3425 16.787 48.8515 16.787H45.4653V21.365H41.5742V4.78712H48.8515C53.3425 4.78118 56.1526 7.07663 56.1526 10.7945ZM52.214 10.7945C52.214 8.97118 51.0134 7.90512 48.6358 7.90512H45.4653V13.6601H48.6358C51.0134 13.6601 52.214 12.595 52.214 10.7945Z" fill="#696FFB"/>
<path d="M60.2344 19.7219L61.5548 16.8325C62.9723 17.8511 65.0856 18.5618 67.1029 18.5618C69.4092 18.5618 70.3456 17.8036 70.3456 16.786C70.3456 13.6828 60.5709 15.815 60.5709 9.65716C60.5709 6.83908 62.8763 4.49414 67.6562 4.49414C69.7695 4.49414 71.9313 4.99203 73.4923 5.96208L72.2916 8.87518C70.7297 7.99917 69.1212 7.5775 67.6315 7.5775C65.3261 7.5775 64.4293 8.43074 64.4293 9.47206C64.4293 12.5277 74.205 10.4193 74.205 16.5059C74.205 19.2764 71.8749 21.6451 67.0712 21.6451C64.4135 21.6402 61.7231 20.8592 60.2344 19.7219Z" fill="#343A40"/>
<path d="M92.2987 18.2788V21.3572H79.2812V4.7793H91.9869V7.8587H83.1486V11.4578H90.9535V14.4421H83.1486V18.2788H92.2987Z" fill="#343A40"/>
<path d="M147.609 18.2788V21.3572H134.592V4.7793H147.296V7.8587H138.458V11.4578H146.264V14.4421H138.458V18.2788H147.609Z" fill="#343A40"/>
<path d="M163.821 21.3562L160.579 16.7357H157V21.3533H153.109V4.77539H160.387C164.878 4.77539 167.688 7.07084 167.688 10.7897C167.688 13.2762 166.407 15.0994 164.229 16.023L168.001 21.3513L163.821 21.3562ZM160.164 7.90428H156.994V13.683H160.164C162.542 13.683 163.743 12.5942 163.743 10.7936C163.749 8.97034 162.549 7.90428 160.164 7.90428Z" fill="#343A40"/>
</svg>
