<svg width="42" height="32" viewBox="0 0 42 32" fill="none" xmlns="http://www.w3.org/2000/svg">
<path d="M32.8548 31.989H9.14516C8.39695 31.989 7.79032 31.3824 7.79032 30.6342V26.623C7.79032 24.7122 8.91772 22.974 10.6626 22.195C15.7373 19.929 15.4591 20.0056 15.8546 20.0056H17.4649C18.0885 20.0056 18.6315 20.4312 18.7805 21.0367C19.3485 23.3447 22.6514 23.3458 23.2196 21.0367C23.3686 20.4313 23.9116 20.0056 24.5352 20.0056C26.2682 20.0056 26.3572 19.9712 26.6979 20.1233L31.3375 22.195C33.0823 22.974 34.2098 24.7122 34.2098 26.623V30.6342C34.2097 31.3824 33.6031 31.989 32.8548 31.989ZM21.0331 0.0107422C16.4698 0.0107422 12.7574 3.72317 12.7574 8.28644C12.7574 12.8497 16.4698 16.5621 21.0331 16.5621C25.5964 16.5621 29.3088 12.8497 29.3088 8.28644C29.3088 3.72317 25.5964 0.0107422 21.0331 0.0107422ZM7.97814 8.86258C5.10495 8.86258 2.76743 11.2001 2.76743 14.0734C2.76743 16.9466 5.10495 19.2841 7.97814 19.2841C10.8514 19.2841 13.1889 16.9466 13.1889 14.0734C13.1888 11.2001 10.8513 8.86258 7.97814 8.86258ZM34.0219 8.86258C31.1486 8.86258 28.8111 11.2001 28.8111 14.0734C28.8111 16.9466 31.1486 19.2841 34.0219 19.2841C36.8951 19.2841 39.2326 16.9466 39.2326 14.0734C39.2326 11.2001 36.8951 8.86258 34.0219 8.86258ZM40.044 21.2744C37.2249 20.0154 37.2924 20.0026 36.9067 20.0026C34.8885 20.0026 33.5683 19.9884 32.6753 19.984C31.7877 19.9796 31.4937 21.1701 32.2802 21.5815C32.9242 21.9183 33.3151 22.2056 33.7795 22.7123C35.1346 24.1841 35.2609 25.7418 35.2606 27.0332C35.2605 27.5008 35.6395 27.8794 36.1071 27.8794H40.6452C41.3937 27.8794 42 27.2722 42 26.5245V24.2898C42 22.9883 41.232 21.8054 40.044 21.2744ZM5.09335 20.0026C4.70942 20.0026 4.78495 20.011 1.95605 21.2744C0.768024 21.8054 0 22.9883 0 24.2898V26.5244C0 27.2721 0.60629 27.8793 1.35484 27.8793H5.89253C6.36046 27.8793 6.73965 27.5003 6.73905 27.0324C6.73753 25.7364 6.86006 24.1899 8.22048 22.7122C8.68257 22.208 9.07683 21.9181 9.70657 21.5873C10.4914 21.175 10.2014 19.988 9.31485 19.9895C8.41651 19.9911 7.09648 20.0026 5.09335 20.0026Z" fill="#0F53FA"/>
</svg>
